<?xml version="1.0" encoding="iso-8859-1"?>
<!-- Uploaded to: SVG Repo, www.svgrepo.com, Generator: SVG Repo Mixer Tools -->
<!DOCTYPE svg PUBLIC "-//W3C//DTD SVG 1.1//EN" "http://www.w3.org/Graphics/SVG/1.1/DTD/svg11.dtd">
<svg fill="#000000" version="1.1" id="Capa_1" xmlns="http://www.w3.org/2000/svg" xmlns:xlink="http://www.w3.org/1999/xlink" 
	 width="800px" height="800px" viewBox="0 0 100.857 100.857"
	 xml:space="preserve">
<g>
	<g>
		<path d="M12.619,84.462c-1.705,3.535-0.225,7.786,3.304,9.49c3.528,1.708,7.784,0.226,9.486-3.306
			c1.709-3.532-0.411-15.469-0.411-15.469S14.321,80.931,12.619,84.462z"/>
		<path d="M35.821,84.462c-1.704,3.535-0.226,7.786,3.304,9.49c3.528,1.708,7.782,0.226,9.493-3.306
			c1.71-3.532-0.417-15.469-0.417-15.469S37.53,80.931,35.821,84.462z"/>
		<path d="M58.512,84.462c-1.701,3.535-0.223,7.786,3.306,9.49c3.532,1.708,7.782,0.226,9.493-3.306
			c1.704-3.532-0.417-15.469-0.417-15.469S60.229,80.931,58.512,84.462z"/>
		<path d="M80.681,16.701C75.691,10.089,67.934,6.195,59.583,6.195c-7.48,0-14.536,3.227-19.48,8.6
			c-9.186,1.044-16.933,6.798-20.759,14.799c-0.165-0.003-0.331-0.026-0.501-0.026C8.437,29.568,0,38.007,0,48.419
			c0,10.409,4.933,21.51,18.842,21.51l46.035,0.26c7.248,0,13.654-3.556,17.61-9.004c10.438-1.947,18.37-11.106,18.37-22.105
			C100.857,27.525,91.971,17.871,80.681,16.701z M86.361,51.812c0.178-1.109,0.294-2.238,0.294-3.393
			c0-11.907-9.564-21.583-21.429-21.763c-3.327-5.13-8.395-9.026-14.354-10.865c2.657-1.377,5.631-2.146,8.711-2.146
			c6.472,0,12.423,3.249,15.947,8.687L76.615,24l1.981,0.028c8.172,0.13,14.821,6.88,14.821,15.052
			C93.418,44.441,90.598,49.143,86.361,51.812z"/>
	</g>
</g>
</svg>